ffmpeg version 3.4.2-2 Copyright (c) 2000-2018 the FFmpeg developers
  built with gcc 7 (Ubuntu 7.3.0-16ubuntu2)
  configuration: --prefix=/usr --extra-version=2 --toolchain=hardened --libdir=/usr/lib/x86_64-linux-gnu --incdir=/usr/include/x86_64-linux-gnu --enable-gpl --disable-stripping --enable-avresample --enable-avisynth --enable-gnutls --enable-ladspa --enable-libass --enable-libbluray --enable-libbs2b --enable-libcaca --enable-libcdio --enable-libflite --enable-libfontconfig --enable-libfreetype --enable-libfribidi --enable-libgme --enable-libgsm --enable-libmp3lame --enable-libmysofa --enable-libopenjpeg --enable-libopenmpt --enable-libopus --enable-libpulse --enable-librubberband --enable-librsvg --enable-libshine --enable-libsnappy --enable-libsoxr --enable-libspeex --enable-libssh --enable-libtheora --enable-libtwolame --enable-libvorbis --enable-libvpx --enable-libwavpack --enable-libwebp --enable-libx265 --enable-libxml2 --enable-libxvid --enable-libzmq --enable-libzvbi --enable-omx --enable-openal --enable-opengl --enable-sdl2 --enable-libdc1394 --enable-libdrm --enable-libiec61883 --enable-chromaprint --enable-frei0r --enable-libopencv --enable-libx264 --enable-shared
  libavutil      55. 78.100 / 55. 78.100
  libavcodec     57.107.100 / 57.107.100
  libavformat    57. 83.100 / 57. 83.100
  libavdevice    57. 10.100 / 57. 10.100
  libavfilter     6.107.100 /  6.107.100
  libavresample   3.  7.  0 /  3.  7.  0
  libswscale      4.  8.100 /  4.  8.100
  libswresample   2.  9.100 /  2.  9.100
  libpostproc    54.  7.100 / 54.  7.100
Guessed Channel Layout for Input Stream #0.0 : stereo
Input #0, alsa, from 'default':
  Duration: N/A, start: 1526765126.100213, bitrate: 1536 kb/s
    Stream #0:0: Audio: pcm_s16le, 48000 Hz, stereo, s16, 1536 kb/s
[video4linux2,v4l2 @ 0x562d2de7f220] The driver changed the time per frame from 1/25 to 1/24
Input #1, video4linux2,v4l2, from '/dev/video3':
  Duration: N/A, start: 277991.107469, bitrate: 117964 kb/s
    Stream #1:0: Video: rawvideo (YUY2 / 0x32595559), yuyv422, 640x480, 117964 kb/s, 24 fps, 24 tbr, 1000k tbn, 1000k tbc
Stream mapping:
  Stream #1:0 -> #0:0 (rawvideo (native) -> h264 (libx264))
  Stream #0:0 -> #0:1 (pcm_s16le (native) -> aac (native))
Press [q] to stop, [?] for help
[libx264 @ 0x562d2de83a80] using cpu capabilities: MMX2 SSE2Fast SSSE3 SSE4.2 AVX FMA3 BMI2 AVX2
[libx264 @ 0x562d2de83a80] profile High 4:2:2, level 3.0, 4:2:2 8-bit
[libx264 @ 0x562d2de83a80] 264 - core 152 r2854 e9a5903 - H.264/MPEG-4 AVC codec - Copyleft 2003-2017 - http://www.videolan.org/x264.html - options: cabac=1 ref=3 deblock=1:0:0 analyse=0x3:0x113 me=hex subme=7 psy=1 psy_rd=1.00:0.00 mixed_ref=1 me_range=16 chroma_me=1 trellis=1 8x8dct=1 cqm=0 deadzone=21,11 fast_pskip=1 chroma_qp_offset=-2 threads=6 lookahead_threads=1 sliced_threads=0 nr=0 decimate=1 interlaced=0 bluray_compat=0 constrained_intra=0 bframes=3 b_pyramid=2 b_adapt=1 b_bias=0 direct=1 weightb=1 open_gop=0 weightp=2 keyint=250 keyint_min=25 scenecut=40 intra_refresh=0 rc_lookahead=40 rc=crf mbtree=1 crf=23.0 qcomp=0.60 qpmin=0 qpmax=69 qpstep=4 ip_ratio=1.40 aq=1:1.00
[alsa @ 0x562d2de60a40] Thread message queue blocking; consider raising the thread_queue_size option (current value: 8)
Output #0, mp4, to '/home/paol/recordings/readyToUpload/SPRING18/PAOL_001232_FA17_CNAC/05-19-18--21-25-26/videoLarge.mp4':
  Metadata:
    encoder         : Lavf57.83.100
    Stream #0:0: Video: h264 (libx264) (avc1 / 0x31637661), yuv422p(progressive), 640x480, q=-1--1, 25 fps, 12800 tbn, 25 tbc
    Metadata:
      encoder         : Lavc57.107.100 libx264
    Side data:
      cpb: bitrate max/min/avg: 0/0/0 buffer size: 0 vbv_delay: -1
    Stream #0:1: Audio: aac (LC) (mp4a / 0x6134706D), 48000 Hz, stereo, fltp, 128 kb/s
    Metadata:
      encoder         : Lavc57.107.100 aac
frame=   12 fps=0.0 q=0.0 size=       0kB time=00:00:00.00 bitrate=N/A speed=   0x    frame=   24 fps= 24 q=0.0 size=       0kB time=00:00:00.00 bitrate=N/A speed=   0x    frame=   36 fps= 24 q=0.0 size=       0kB time=00:00:00.00 bitrate=N/A speed=   0x    frame=   48 fps= 24 q=0.0 size=       0kB time=00:00:00.00 bitrate=N/A speed=   0x    frame=   60 fps= 24 q=28.0 size=       0kB time=00:00:00.31 bitrate=   1.2kbits/s speed=0.124x    frame=   72 fps= 24 q=28.0 size=       0kB time=00:00:00.79 bitrate=   0.5kbits/s speed=0.264x    frame=   85 fps= 24 q=28.0 size=       0kB time=00:00:01.29 bitrate=   0.3kbits/s speed=0.365x    frame=   97 fps= 24 q=28.0 size=       0kB time=00:00:01.80 bitrate=   0.2kbits/s speed=0.447x    frame=  109 fps= 24 q=28.0 size=       0kB time=00:00:02.26 bitrate=   0.2kbits/s speed= 0.5x    frame=  121 fps= 24 q=28.0 size=       0kB time=00:00:02.76 bitrate=   0.1kbits/s speed=0.547x    frame=  134 fps= 24 q=28.0 size=       0kB time=00:00:03.24 bitrate=   0.1kbits/s speed=0.584x    frame=  145 fps= 24 q=28.0 size=       0kB time=00:00:03.71 bitrate=   0.1kbits/s speed=0.614x    frame=  157 fps= 24 q=28.0 size=       0kB time=00:00:04.18 bitrate=   0.1kbits/s speed=0.639x    frame=  170 fps= 24 q=28.0 size=       0kB time=00:00:04.68 bitrate=   0.1kbits/s speed=0.663x    frame=  175 fps= 22 q=-1.0 Lsize=     295kB time=00:00:07.00 bitrate= 345.3kbits/s speed=0.898x    
video:177kB audio:110kB subtitle:0kB other streams:0kB global headers:0kB muxing overhead: 2.960279%
[libx264 @ 0x562d2de83a80] frame I:1     Avg QP:21.96  size:  7069
[libx264 @ 0x562d2de83a80] frame P:44    Avg QP:21.81  size:  2144
[libx264 @ 0x562d2de83a80] frame B:130   Avg QP:22.12  size:   609
[libx264 @ 0x562d2de83a80] consecutive B-frames:  0.6%  1.1%  0.0% 98.3%
[libx264 @ 0x562d2de83a80] mb I  I16..4: 38.0% 55.1%  6.9%
[libx264 @ 0x562d2de83a80] mb P  I16..4:  3.6%  3.4%  0.1%  P16..4: 45.3%  3.8%  6.6%  0.0%  0.0%    skip:37.2%
[libx264 @ 0x562d2de83a80] mb B  I16..4:  0.2%  0.1%  0.0%  B16..8: 26.4%  0.1%  0.0%  direct: 1.8%  skip:71.4%  L0:43.7% L1:55.5% BI: 0.8%
[libx264 @ 0x562d2de83a80] 8x8 transform intra:47.9% inter:96.8%
[libx264 @ 0x562d2de83a80] coded y,uvDC,uvAC intra: 15.3% 45.0% 2.7% inter: 3.8% 19.0% 0.2%
[libx264 @ 0x562d2de83a80] i16 v,h,dc,p: 23% 30% 10% 38%
[libx264 @ 0x562d2de83a80] i8 v,h,dc,ddl,ddr,vr,hd,vl,hu: 13% 22% 51%  2%  3%  2%  3%  2%  2%
[libx264 @ 0x562d2de83a80] i4 v,h,dc,ddl,ddr,vr,hd,vl,hu: 18% 52% 12%  1%  5%  4%  3%  2%  2%
[libx264 @ 0x562d2de83a80] i8c dc,h,v,p: 60% 19% 19%  2%
[libx264 @ 0x562d2de83a80] Weighted P-Frames: Y:25.0% UV:11.4%
[libx264 @ 0x562d2de83a80] ref P L0: 52.2%  7.3% 26.1% 10.8%  3.6%
[libx264 @ 0x562d2de83a80] ref B L0: 82.8% 14.2%  2.9%
[libx264 @ 0x562d2de83a80] ref B L1: 92.8%  7.2%
[libx264 @ 0x562d2de83a80] kb/s:206.35
[aac @ 0x562d2de85c00] Qavg: 309.977
